<svg xmlns="http://www.w3.org/2000/svg" width="80" height="80" viewBox="0 0 80 80"><defs><style>.a,.b{fill:#f5f6f7;}.b{stroke:#e8e9eb;stroke-width:0.5px;}.c{fill:#fff;}.d,.e{fill:#a3aab7;}.e{font-size:10px;font-family:SourceHanSansCN-Regular, Source Han Sans CN;}.f{stroke:none;}.g{fill:none;}</style></defs><g transform="translate(-197.38 -196.445)"><rect class="a" width="56" height="80" rx="4" transform="translate(209.38 196.445)"/><g class="b" transform="translate(197.38 196.445)"><rect class="f" width="80" height="80" rx="4"/><rect class="g" x="0.25" y="0.25" width="79.5" height="79.5" rx="3.75"/></g><g transform="translate(218.381 208.871)"><circle class="c" cx="19" cy="19" r="19" transform="translate(-0.001 -0.425)"/><g transform="translate(9.748 11.113)"><path class="d" d="M17.251,14.568h-16a1,1,0,0,1-1-1V3.775a1,1,0,0,1,1-1h3L5.5,0H13l1.25,2.775h3a1,1,0,0,1,1,1v9.794A1,1,0,0,1,17.251,14.568ZM9.563,5.549a2.313,2.313,0,1,0,2.313,2.312A2.315,2.315,0,0,0,9.563,5.549Z" transform="translate(0 0)"/></g></g><text class="e" transform="translate(237.38 262.445)"><tspan x="-20" y="0">支付凭证</tspan></text></g></svg>